<svg xmlns="http://www.w3.org/2000/svg" width="108.843" height="98.024" viewBox="0 0 108.843 98.024">
  <g id="noun_Alert_3184545" transform="translate(-10.862 -2.983)">
    <g id="_04" data-name="04" transform="translate(10.862 2.983)">
      <path id="Path_3" data-name="Path 3" d="M110.068,98.287a5.441,5.441,0,0,1-4.679,2.72H56.423a5.441,5.441,0,0,1-5.441-5.441V90.126a5.441,5.441,0,0,1,10.881,0H96.085L56.423,19.4,12.19,98.232a5.459,5.459,0,1,1-9.467-5.441L51.689,5.741a5.441,5.441,0,0,1,9.467,0l48.966,87.051A5.441,5.441,0,0,1,110.068,98.287ZM56.423,79.245A5.441,5.441,0,0,0,61.863,73.8V46.6a5.441,5.441,0,0,0-10.881,0V73.8A5.441,5.441,0,0,0,56.423,79.245Z" transform="translate(-1.996 -2.983)"/>
    </g>
  </g>
</svg>
