<svg xmlns="http://www.w3.org/2000/svg" width="100.004" height="92.612" viewBox="0 0 100.004 92.612">
  <g id="noun_chat_945190" transform="translate(0 -3.71)">
    <path id="Path_1" data-name="Path 1" d="M0,96.22c11.57,0,22.89.12,34.11.1h.08c7.55,0,15-.09,22.54-.3,5.65-.16,11.56-2,16.8-4.36C89.85,84.44,98.82,70.2,99.6,55.57q.27-1.92.36-3.86c1.18-25.51-21.45-48-48-48A48,48,0,0,0,11.1,77a5.9,5.9,0,0,1-.65,2.13C7.23,84.74,3.73,90.18,0,96.22Zm72.33-52a2.39,2.39,0,1,0,0,.03ZM52,44.25A5.75,5.75,0,1,1,46.25,50,5.75,5.75,0,0,1,52,44.25Zm-20.24,0a5.806,5.806,0,1,0,.01,0Z"/>
  </g>
</svg>
